<?xml version="1.0" encoding="utf-8"?>
<!-- Generator: Adobe Illustrator 24.0.0, SVG Export Plug-In . SVG Version: 6.00 Build 0)  -->
<svg version="1.1" id="Layer_3" xmlns="http://www.w3.org/2000/svg" xmlns:xlink="http://www.w3.org/1999/xlink" x="0px" y="0px"
	 viewBox="0 0 278.5 333.9" style="enable-background:new 0 0 278.5 333.9;" xml:space="preserve">
<g>
	<path d="M192.8,0.1c0,0-100.4-0.6-101.8,0.8v27h73v82h87v175c0,0,0,19.5-19.5,19.5H47c0,0-19.7,2-19.7-19.8V88.9H0v198
		c0,0-2,47,47,47h185c0,0,46.5,0,46.5-46.5V85.9L192.8,0.1z M192,80.9v-39c1.1,0,40,39,40,39H192z"/>
	<polygon points="45,109.9 73,109.9 73,69.9 111,69.9 111,44.9 73,44.9 73,7.9 45,7.9 45,44.9 8,44.9 8,71.9 45,71.9 	"/>
	<rect x="83" y="163.9" width="109" height="26"/>
	<rect x="83" y="219.9" width="80" height="26"/>
</g>
</svg>